inDegrees=yes
name=ik_lifting_orientations
DataType=double
version=3
OpenSimVersion=4.5-2024-01-10-34fd6af
endheader
time	pelvis_tilt	pelvis_list	pelvis_rotation	pelvis_tx	pelvis_ty	pelvis_tz	hip_flexion_r	hip_adduction_r	hip_rotation_r	knee_angle_r	knee_angle_r_beta	ankle_angle_r	subtalar_angle_r	mtp_angle_r	hip_flexion_l	hip_adduction_l	hip_rotation_l	knee_angle_l	knee_angle_l_beta	ankle_angle_l	subtalar_angle_l	mtp_angle_l	lumbar_extension	lumbar_bending	lumbar_rotation	arm_flex_r	arm_add_r	arm_rot_r	elbow_flex_r	pro_sup_r	wrist_flex_r	wrist_dev_r	arm_flex_l	arm_add_l	arm_rot_l	elbow_flex_l	pro_sup_l	wrist_flex_l	wrist_dev_l
0.02	0.004796551304670956	-0.006145384408699569	-90.52012977867301	0	0.9399999998679526	0	44.63531981431046	-12.00160161333198	0	59.14454774167478	1.032267092695202	-5.977961812859158	0	0	44.63531981431046	-12.00160161333198	0	59.14454774167478	1.032267092695202	-5.977961812859158	0	0	-0.01353312533830878	-0.005499067231057387	-0.001391337361354761	-0.167390872882514	-0.03639173101764218	-0.002382288101177204	0.3693146146409275	4.238709747390261	0	0	0	-9.38326445615114	0	85.82522281437249	4.238709747390261	0	0
0.03	-0.08660382267840616	-0.1153772377947513	-90.22259301263657	0	0.9399999998679526	0	44.63538886994588	-12.00027590806263	0	59.1446750858446	1.032269315270248	-5.977118529445504	0	0	44.63538886994588	-12.00027590806263	0	59.1446750858446	1.032269315270248	-5.977118529445504	0	0	-0.3925730268720409	0.3635407799796659	0.112791995559986	0.08543139390773309	-0.4365560305200624	-0.02569562898420342	0.5501671444195018	4.238149851051618	0	0	0	-9.383810942045798	0	85.82577420801914	4.238149851051618	0	0
0.04	-0.217844367632375	-0.2366858263525239	-90.47531444576698	0	0.9399999998679526	0	44.63549383005451	-11.99825682342821	0	59.14486821497776	1.032272686009503	-5.9758339221631	0	0	44.63549383005451	-11.99825682342821	0	59.14486821497776	1.032272686009503	-5.9758339221631	0	0	-0.898139846859706	0.8347778285096795	0.8866646947331421	0.5097231095769484	-0.9060727848544852	-0.1837592983208093	0.59833742381918	4.237299506822728	0	0	0	-9.384640341116718	0	85.8266116385272	4.237299506822728	0	0
0.05	-0.2949020155993114	-0.3272978704400314	-90.57585110174145	0	0.9399999998679526	0	44.63558223975551	-11.99656390116801	0	59.14503138446381	1.032275533854274	-5.974757982383531	0	0	44.63558223975551	-11.99656390116801	0	59.14503138446381	1.032275533854274	-5.974757982383531	0	0	-1.533933752453645	1.408919216973305	1.554072966955584	1.041106987553122	-1.478277614326366	-0.5662858247860223	0.6253580253547288	4.236582368396272	0	5.38806921148701e-36	0	-9.385340531926266	0	85.82731788647456	4.236582368396272	0	5.38806921148701e-36
0.06	-0.4073270264747555	-0.4479849753772985	-91.39427832249423	0	0.9399999998679526	0	44.63571208460586	-11.99408531949928	0	59.14527145915388	1.032279723948066	-5.973183989271263	0	0	44.63571208460586	-11.99408531949928	0	59.14527145915388	1.032279723948066	-5.973183989271263	0	0	-2.49394423894901	2.201739280842137	3.20219060880403	1.877462747874673	-2.301293071855337	-1.017975168594918	0.6262128945969926	4.235528323664736	0	0	0	-9.386370306596648	0	85.82835592475141	4.235528323664736	0	0
0.07000000000000001	-0.7077599585085904	-0.7717328287878626	-92.20848817157514	0	0.9399999998679526	0	44.6358264381405	-11.99190758391707	0	59.14548318362127	1.032283419237129	-5.971801880383639	0	0	44.6358264381405	-11.99190758391707	0	59.14548318362127	1.032283419237129	-5.971801880383639	0	0	-3.214049714696517	2.853632672772084	1.817709404376392	2.294972415087071	-2.751498309708631	1.490402277877162	0.5797902607211961	4.23459948066073	0	0	0	-9.387278210261949	0	85.8292706627887	4.23459948066073	0	0
0.08	-1.270283694847071	-1.369743964313287	-92.74707789467668	0	0.9399999998679526	0	44.63625927092541	-11.98366443826591	0	59.14628135931783	1.032297350031044	-5.966576619123596	0	0	44.63625927092541	-11.98366443826591	0	59.14628135931783	1.032297350031044	-5.966576619123596	0	0	-4.535694912854247	4.138496649321913	-0.8397801987419539	3.14685802232432	-3.477614428142768	5.063481351099246	0.53938249368594	4.231087899642024	0	0	0	-9.390706377437299	0	85.83272891709936	4.231087899642024	0	0
0.09	-2.344389613661825	-2.469302638432753	-93.53690973354288	0	0.9399999998679526	0	44.63634767878476	-11.98200851340089	0	59.14644674562319	1.03230023656661	-5.965529909686401	0	0	44.63634767878476	-11.98200851340089	0	59.14644674562319	1.03230023656661	-5.965529909686401	0	0	-6.512004670611374	5.840339723209504	-1.501374727508217	4.00410861157761	-4.150235883874343	6.865196764375354	0.5677037806318357	4.230366713841654	0	0	0	-9.391413812699072	0	85.83343915243665	4.230366713841654	0	0
0.1	-3.418534821034928	-3.548337987858091	-94.32397266881873	0	0.9399999998679526	0	44.63648103465132	-11.97949050331525	0	59.14669454299435	1.032304561446614	-5.963936037053014	0	0	44.63648103465132	-11.97949050331525	0	59.14669454299435	1.032304561446614	-5.963936037053014	0	0	-8.537977871269806	7.583812663461853	-2.211517816822155	5.027485625631679	-4.878100544523257	8.773819309972286	0.5214832670607455	4.229281607623134	0	0	0	-9.3924759247128	0	85.83450778147926	4.229281607623134	0	0
